HIERARCHY
ROOT Hips
{
	OFFSET 0.000000 71.427986 0.000000
	CHANNELS 6 Xposition Yposition Zposition Xrotation Yrotation Zrotation
	JOINT Pelvis
	{
		OFFSET 0.000000 0.000000 0.000000
		CHANNELS 3 Xrotation Yrotation Zrotation
		JOINT LeftUpLeg
		{
			OFFSET 6.797100 -2.508499 -1.318700
			CHANNELS 3 Xrotation Yrotation Zrotation
			JOINT LeftLeg
			{
				OFFSET 0.069008 -29.241863 0.690200
				CHANNELS 3 Xrotation Yrotation Zrotation
				JOINT LeftFoot
				{
					OFFSET -0.069008 -29.568123 -0.266800
					CHANNELS 3 Xrotation Yrotation Zrotation
					JOINT LeftToeBase
					{
						OFFSET 3.145500 -8.631000 16.059900
						CHANNELS 3 Xrotation Yrotation Zrotation
						End Site
						{
							OFFSET 0.000000 18.501587 0.000000
						}
					}
				}
			}
			JOINT Left_ShortSleeve
			{
				OFFSET 0.265923 -10.480953 1.153800
				CHANNELS 3 Xrotation Yrotation Zrotation
				End Site
				{
					OFFSET 1.725763 19.823879 0.000000
				}
			}
		}
		JOINT RightUpLeg
		{
			OFFSET -6.797100 -2.508499 -1.318700
			CHANNELS 3 Xrotation Yrotation Zrotation
			JOINT RightLeg
			{
				OFFSET -0.082453 -29.241932 0.688000
				CHANNELS 3 Xrotation Yrotation Zrotation
				JOINT RightFoot
				{
					OFFSET 0.082453 -29.568058 -0.264600
					CHANNELS 3 Xrotation Yrotation Zrotation
					JOINT RightToeBase
					{
						OFFSET -3.115300 -8.682800 16.113400
						CHANNELS 3 Xrotation Yrotation Zrotation
						End Site
						{
							OFFSET 0.000000 18.567114 0.000000
						}
					}
				}
			}
			JOINT Right_ShortSleeve
			{
				OFFSET -0.265923 -10.480953 1.153800
				CHANNELS 3 Xrotation Yrotation Zrotation
				End Site
				{
					OFFSET -1.725766 19.823910 0.000000
				}
			}
		}
	}
	JOINT Spine
	{
		OFFSET 0.000000 13.368103 0.470500
		CHANNELS 3 Xrotation Yrotation Zrotation
		JOINT Spine1
		{
			OFFSET 0.147000 13.837402 0.538800
			CHANNELS 3 Xrotation Yrotation Zrotation
			JOINT Spine2
			{
				OFFSET 0.168000 16.242897 -1.435500
				CHANNELS 3 Xrotation Yrotation Zrotation
				JOINT Neck
				{
					OFFSET 0.217200 18.631500 -1.679100
					CHANNELS 3 Xrotation Yrotation Zrotation
					JOINT Head
					{
						OFFSET 0.000000 6.599396 1.385900
						CHANNELS 3 Xrotation Yrotation Zrotation
						JOINT Hat
						{
							OFFSET -0.532200 27.220596 -10.096100
							CHANNELS 3 Xrotation Yrotation Zrotation
							End Site
							{
								OFFSET 0.000000 22.029861 0.000000
							}
						}
						JOINT HairD
						{
							OFFSET -10.777400 17.437393 -1.325900
							CHANNELS 3 Xrotation Yrotation Zrotation
							JOINT HairD1
							{
								OFFSET -3.290299 -11.051193 1.062200
								CHANNELS 3 Xrotation Yrotation Zrotation
								End Site
								{
									OFFSET 0.000000 11.579437 0.000000
								}
							}
						}
						JOINT HairB
						{
							OFFSET -10.777400 17.437393 1.467900
							CHANNELS 3 Xrotation Yrotation Zrotation
							JOINT HairB1
							{
								OFFSET -1.561200 -12.956299 3.590200
								CHANNELS 3 Xrotation Yrotation Zrotation
								End Site
								{
									OFFSET 0.000000 13.534866 0.000000
								}
							}
						}
						JOINT HairA
						{
							OFFSET 9.713100 17.437393 1.467900
							CHANNELS 3 Xrotation Yrotation Zrotation
							JOINT HairA1
							{
								OFFSET 1.561200 -12.956299 3.590200
								CHANNELS 3 Xrotation Yrotation Zrotation
								End Site
								{
									OFFSET 0.000000 13.534866 0.000000
								}
							}
						}
						JOINT HairC
						{
							OFFSET 9.713100 17.437393 -1.325900
							CHANNELS 3 Xrotation Yrotation Zrotation
							JOINT HairC1
							{
								OFFSET 3.290300 -11.051193 1.062200
								CHANNELS 3 Xrotation Yrotation Zrotation
								End Site
								{
									OFFSET 0.000000 11.579437 0.000000
								}
							}
						}
					}
				}
				JOINT LeftShoulder
				{
					OFFSET 5.101800 15.108002 -2.763700
					CHANNELS 3 Xrotation Yrotation Zrotation
					JOINT LeftArm
					{
						OFFSET 9.825497 2.506317 -1.597400
						CHANNELS 3 Xrotation Yrotation Zrotation
						JOINT LeftForeArm
						{
							OFFSET 21.966244 0.000000 0.000000
							CHANNELS 3 Xrotation Yrotation Zrotation
							JOINT LeftHand
							{
								OFFSET 33.879036 0.000000 0.000000
								CHANNELS 3 Xrotation Yrotation Zrotation
								JOINT LeftHandThumb1
								{
									OFFSET 6.715286 -2.359680 3.363841
									CHANNELS 3 Xrotation Yrotation Zrotation
									JOINT LeftHandThumb2
									{
										OFFSET 2.507072 -1.447464 1.447461
										CHANNELS 3 Xrotation Yrotation Zrotation
										JOINT LeftHandThumb3
										{
											OFFSET 2.898338 -1.673355 1.673357
											CHANNELS 3 Xrotation Yrotation Zrotation
											End Site
											{
												OFFSET -0.295959 3.727692 -0.131651
											}
										}
									}
								}
								JOINT LeftHandIndex1
								{
									OFFSET 14.190811 -0.254547 3.840278
									CHANNELS 3 Xrotation Yrotation Zrotation
									JOINT LeftHandIndex2
									{
										OFFSET 3.551727 0.000000 -0.000000
										CHANNELS 3 Xrotation Yrotation Zrotation
										JOINT LeftHandIndex3
										{
											OFFSET 2.894196 0.000000 0.000000
											CHANNELS 3 Xrotation Yrotation Zrotation
											End Site
											{
												OFFSET -1.000603 2.690872 0.366626
											}
										}
									}
								}
								JOINT LeftHandMiddle1
								{
									OFFSET 13.776489 0.000000 0.000000
									CHANNELS 3 Xrotation Yrotation Zrotation
									JOINT LeftHandMiddle2
									{
										OFFSET 3.438232 0.000000 0.000000
										CHANNELS 3 Xrotation Yrotation Zrotation
										JOINT LeftHandMiddle3
										{
											OFFSET 3.691551 0.000000 0.000000
											CHANNELS 3 Xrotation Yrotation Zrotation
											End Site
											{
												OFFSET -1.082298 3.499527 0.457670
											}
										}
									}
								}
								JOINT LeftHandRing1
								{
									OFFSET 13.966164 -0.268127 -3.067488
									CHANNELS 3 Xrotation Yrotation Zrotation
									JOINT LeftHandRing2
									{
										OFFSET 3.162567 0.000000 0.000000
										CHANNELS 3 Xrotation Yrotation Zrotation
										JOINT LeftHandRing3
										{
											OFFSET 3.324348 0.000000 0.000000
											CHANNELS 3 Xrotation Yrotation Zrotation
											End Site
											{
												OFFSET -0.861900 3.184998 0.405154
											}
										}
									}
								}
								JOINT LeftHandPinky1
								{
									OFFSET 13.131393 -0.168503 -5.746925
									CHANNELS 3 Xrotation Yrotation Zrotation
									JOINT LeftHandPinky2
									{
										OFFSET 2.849182 0.000000 0.000000
										CHANNELS 3 Xrotation Yrotation Zrotation
										JOINT LeftHandPinky3
										{
											OFFSET 2.805038 0.000000 0.000000
											CHANNELS 3 Xrotation Yrotation Zrotation
											End Site
											{
												OFFSET -0.882500 2.642609 0.325652
											}
										}
									}
								}
							}
							JOINT Left_Sleeve
							{
								OFFSET 6.592125 -0.646545 0.805568
								CHANNELS 3 Xrotation Yrotation Zrotation
								End Site
								{
									OFFSET -0.000179 20.275787 -0.000000
								}
							}
						}
					}
				}
				JOINT RightShoulder
				{
					OFFSET -5.731700 15.108002 -2.763700
					CHANNELS 3 Xrotation Yrotation Zrotation
					JOINT RightArm
					{
						OFFSET -9.825497 2.506317 -1.597400
						CHANNELS 3 Xrotation Yrotation Zrotation
						JOINT RightForeArm
						{
							OFFSET -21.966242 0.000000 0.000000
							CHANNELS 3 Xrotation Yrotation Zrotation
							JOINT RightHand
							{
								OFFSET -33.879032 0.000000 0.000000
								CHANNELS 3 Xrotation Yrotation Zrotation
								JOINT RightHandThumb1
								{
									OFFSET -6.715286 -2.359680 3.363841
									CHANNELS 3 Xrotation Yrotation Zrotation
									JOINT RightHandThumb2
									{
										OFFSET -2.507072 -1.447464 1.447461
										CHANNELS 3 Xrotation Yrotation Zrotation
										JOINT RightHandThumb3
										{
											OFFSET -2.898338 -1.673355 1.673357
											CHANNELS 3 Xrotation Yrotation Zrotation
											End Site
											{
												OFFSET 0.295959 3.727692 -0.131651
											}
										}
									}
								}
								JOINT RightHandIndex1
								{
									OFFSET -14.190811 -0.254547 3.840278
									CHANNELS 3 Xrotation Yrotation Zrotation
									JOINT RightHandIndex2
									{
										OFFSET -3.551727 0.000000 -0.000000
										CHANNELS 3 Xrotation Yrotation Zrotation
										JOINT RightHandIndex3
										{
											OFFSET -2.894196 0.000000 0.000000
											CHANNELS 3 Xrotation Yrotation Zrotation
											End Site
											{
												OFFSET 1.000603 2.690872 0.366626
											}
										}
									}
								}
								JOINT RightHandMiddle1
								{
									OFFSET -13.776489 0.000000 0.000000
									CHANNELS 3 Xrotation Yrotation Zrotation
									JOINT RightHandMiddle2
									{
										OFFSET -3.438232 0.000000 0.000000
										CHANNELS 3 Xrotation Yrotation Zrotation
										JOINT RightHandMiddle3
										{
											OFFSET -3.691551 0.000000 0.000000
											CHANNELS 3 Xrotation Yrotation Zrotation
											End Site
											{
												OFFSET 1.082298 3.499527 0.457670
											}
										}
									}
								}
								JOINT RightHandRing1
								{
									OFFSET -13.966164 -0.268127 -3.067488
									CHANNELS 3 Xrotation Yrotation Zrotation
									JOINT RightHandRing2
									{
										OFFSET -3.162567 0.000000 0.000000
										CHANNELS 3 Xrotation Yrotation Zrotation
										JOINT RightHandRing3
										{
											OFFSET -3.324348 0.000000 0.000000
											CHANNELS 3 Xrotation Yrotation Zrotation
											End Site
											{
												OFFSET 0.861900 3.184998 0.405154
											}
										}
									}
								}
								JOINT RightHandPinky1
								{
									OFFSET -13.131393 -0.168503 -5.746925
									CHANNELS 3 Xrotation Yrotation Zrotation
									JOINT RightHandPinky2
									{
										OFFSET -2.849182 0.000000 0.000000
										CHANNELS 3 Xrotation Yrotation Zrotation
										JOINT RightHandPinky3
										{
											OFFSET -2.805038 0.000000 0.000000
											CHANNELS 3 Xrotation Yrotation Zrotation
											End Site
											{
												OFFSET 0.882500 2.642609 0.325652
											}
										}
									}
								}
							}
							JOINT Right_Sleeve
							{
								OFFSET -6.592125 -0.646545 0.805568
								CHANNELS 3 Xrotation Yrotation Zrotation
								End Site
								{
									OFFSET 0.000179 20.275787 -0.000000
								}
							}
						}
					}
				}
				JOINT Bind_Right_JacketString
				{
					OFFSET -3.534800 11.969597 7.200700
					CHANNELS 3 Xrotation Yrotation Zrotation
					JOINT Bind_Right_JacketString1
					{
						OFFSET -0.319900 -6.102600 2.794100
						CHANNELS 3 Xrotation Yrotation Zrotation
						End Site
						{
							OFFSET 0.000000 6.719452 0.000000
						}
					}
				}
				JOINT Bind_Left_JacketString
				{
					OFFSET 2.904800 11.969597 7.200700
					CHANNELS 3 Xrotation Yrotation Zrotation
					JOINT Bind_Left_JacketString1
					{
						OFFSET 0.364800 -5.904503 3.186800
						CHANNELS 3 Xrotation Yrotation Zrotation
						End Site
						{
							OFFSET 0.000000 6.719513 0.000000
						}
					}
				}
				JOINT HairE
				{
					OFFSET 5.915200 17.612701 -11.592200
					CHANNELS 3 Xrotation Yrotation Zrotation
					JOINT HairE1
					{
						OFFSET 0.289200 -7.171898 -1.284500
						CHANNELS 3 Xrotation Yrotation Zrotation
						End Site
						{
							OFFSET 0.000000 7.291756 0.000000
						}
					}
				}
				JOINT HairF
				{
					OFFSET -0.864800 17.612701 -11.592200
					CHANNELS 3 Xrotation Yrotation Zrotation
					JOINT HairF1
					{
						OFFSET 0.000000 -14.087097 -2.127501
						CHANNELS 3 Xrotation Yrotation Zrotation
						End Site
						{
							OFFSET 0.000000 14.246841 0.000000
						}
					}
				}
				JOINT HairG
				{
					OFFSET -8.087700 17.612701 -11.592200
					CHANNELS 3 Xrotation Yrotation Zrotation
					JOINT HairG1
					{
						OFFSET -0.293600 -6.081398 -0.910100
						CHANNELS 3 Xrotation Yrotation Zrotation
						End Site
						{
							OFFSET 0.000000 6.156120 0.000000
						}
					}
				}
			}
		}
	}
	JOINT Pouch
	{
		OFFSET 0.000000 4.394501 10.847300
		CHANNELS 3 Xrotation Yrotation Zrotation
		End Site
		{
			OFFSET 0.000000 21.880577 0.000000
		}
	}
	JOINT Bag
	{
		OFFSET -13.229000 4.813004 -0.593300
		CHANNELS 3 Xrotation Yrotation Zrotation
		End Site
		{
			OFFSET 0.000000 21.880577 0.000000
		}
	}
	JOINT OccupyGuyFacialAnim_Joint
	{
		OFFSET 1.000000 -70.206398 -1.655000
		CHANNELS 3 Xrotation Yrotation Zrotation
		End Site
		{
			OFFSET 0.000000 21.880577 0.000000
		}
	}
}
MOTION
Frames: 4
Frame Time: 0.016667
-0.989460 66.542374 0.929276 -6.079189 -42.950808 -4.012645 0.000000 -0.000000 -0.000000 -24.699318 6.204360 14.122004 34.947592 -14.629097 -0.530068 -7.760223 0.901899 -7.287257 0.000000 0.000002 -0.000000 -0.000002 -0.000002 -0.000001 -2.863202 -14.282566 -14.573252 34.202360 -8.720022 -0.302355 -23.645973 -4.512590 16.665363 -0.000000 0.000000 -0.000000 0.000000 0.000001 -0.000000 5.833149 4.561430 -1.234261 11.836540 9.037613 -3.083967 11.836543 9.037613 -3.083967 -9.907369 -1.416035 0.452971 -0.529823 20.570691 -0.772811 -0.000000 0.000000 0.000000 -0.000000 0.000000 0.000000 -0.000000 0.000000 0.000000 -0.000000 0.000000 0.000000 -0.000000 0.000000 0.000000 -0.000000 0.000000 0.000000 -0.000000 0.000000 0.000000 -0.000000 0.000000 0.000000 -0.000000 0.000000 0.000000 1.396581 -0.734464 -7.859327 -14.236648 2.407726 -63.256807 9.875230 -47.538380 5.912050 16.118534 0.922165 18.828760 9.163597 4.814114 -5.499017 -0.335358 0.032559 0.783684 0.000002 -0.000000 -0.000000 -0.902004 -6.980957 -3.808411 0.033409 0.804252 -16.418988 0.000001 -0.000001 -0.000000 1.947854 9.683086 -14.539796 -0.456435 -1.565425 -21.881030 0.000001 -0.000000 -0.000001 2.605873 14.896803 -31.345261 -0.576843 -2.712391 -32.011539 -0.000002 0.000002 -0.000001 4.170568 18.495036 -34.987330 -0.706785 -5.788633 -39.372902 -0.000001 0.000001 0.000001 0.000003 0.000004 -0.000002 1.410922 9.461487 9.792760 1.220051 -24.270700 60.532852 -6.660689 41.858442 8.043892 6.225205 12.322296 11.673242 -8.898175 -4.908915 -0.379257 7.904841 -19.192468 -2.856858 0.000001 0.000000 0.000001 -1.085501 -1.215484 4.525247 0.142005 -1.115582 16.942626 0.000000 -0.000000 0.000000 -0.668342 -2.904959 12.731540 -0.667287 1.816589 30.578764 -0.000000 0.000000 0.000003 2.423626 -7.404542 21.763281 -0.987214 3.762993 37.431206 0.000002 0.000001 0.000001 3.480594 -10.053109 24.322305 -1.457036 7.871389 41.091989 -0.000000 -0.000000 -0.000007 -0.000003 0.000001 -0.000003 0.000003 0.000001 -0.000001 0.000003 0.000001 -0.000001 0.000003 0.000001 0.000000 0.000003 0.000001 0.000000 0.000003 0.000001 -0.000001 0.000003 0.000001 -0.000001 0.000003 0.000001 0.000000 0.000003 0.000001 0.000000 0.000003 0.000001 -0.000001 0.000003 0.000001 -0.000001 0.000000 -0.000000 -0.000000 0.000000 -0.000000 -0.000000 0.000000 -0.000000 -0.000000 
-0.738931 66.308624 0.673251 -4.941756 -43.725935 -3.260296 0.000000 0.000001 0.000000 -26.324818 6.268761 14.336104 35.911232 -14.237949 -0.477288 -7.903964 0.947515 -7.357681 -0.000000 -0.000001 -0.000000 0.000002 -0.000001 0.000000 -4.802213 -12.044377 -14.196845 36.078217 -10.355082 -0.513447 -24.028431 -4.429932 17.286982 -0.000000 -0.000002 0.000000 0.000000 0.000001 0.000001 5.931314 4.472831 -1.193513 12.025234 8.854457 -2.993142 12.025228 8.854468 -2.993145 -10.777274 -0.439161 0.984888 -1.745465 21.729747 -1.808204 -0.000001 0.000000 0.000000 -0.000001 0.000000 0.000000 -0.000001 0.000000 0.000000 -0.000001 0.000000 0.000000 -0.000001 0.000000 0.000000 -0.000001 0.000000 0.000000 -0.000001 0.000000 0.000000 -0.000001 0.000000 0.000000 -0.000001 0.000000 0.000000 0.965636 -1.032581 -7.966036 -15.103292 0.865218 -62.925098 10.783031 -44.898190 6.185717 16.918920 -0.292549 19.627093 9.349417 4.758724 -5.687997 -0.198649 0.325450 0.830082 0.000001 0.000001 -0.000000 -1.019737 -6.725077 -5.312753 -0.024109 0.621132 -18.002335 -0.000000 0.000003 -0.000003 2.038156 9.433261 -15.807851 -0.518314 -1.712259 -23.341907 0.000002 0.000001 -0.000001 2.629688 14.587898 -32.393815 -0.622581 -2.782446 -33.387037 -0.000001 0.000003 -0.000000 4.065090 18.024531 -36.188815 -0.726385 -5.810861 -40.750401 0.000001 -0.000001 -0.000001 0.000003 0.000003 -0.000002 0.953481 9.999494 9.272303 0.949926 -23.054612 60.574557 -5.823118 42.180820 7.329630 6.263662 12.051183 10.451351 -8.629382 -4.893345 -0.125875 7.913498 -19.223977 -2.860407 -0.000001 0.000000 0.000000 -1.071996 -1.312173 5.663825 0.107975 -1.008036 18.067631 0.000000 0.000000 0.000002 -0.667783 -2.883313 13.714701 -0.713122 1.892768 31.570985 0.000001 -0.000001 -0.000003 2.379257 -7.310021 22.637151 -1.035014 3.824179 38.329481 0.000001 0.000001 -0.000000 3.381069 -9.859285 25.095553 -1.498526 7.918855 41.906492 -0.000001 0.000001 -0.000001 0.000002 -0.000002 0.000001 -0.000000 -0.000001 -0.000001 -0.000000 -0.000001 -0.000000 -0.000000 -0.000001 -0.000000 -0.000000 -0.000001 -0.000000 -0.000000 -0.000001 -0.000001 -0.000000 -0.000001 -0.000000 -0.000000 -0.000001 -0.000000 -0.000000 -0.000001 -0.000000 -0.000000 -0.000001 -0.000001 -0.000000 -0.000001 -0.000000 0.000000 0.000001 0.000000 0.000000 0.000001 0.000000 0.000000 0.000001 0.000000 
-0.301654 65.954514 0.285574 -3.044413 -44.491145 -1.747828 0.000000 0.000000 -0.000000 -28.793236 6.220849 14.265134 37.112072 -13.677542 -0.401187 -7.899817 0.987274 -7.439884 -0.000000 0.000002 0.000000 -0.000000 0.000000 -0.000000 -7.999972 -9.554099 -14.093916 38.941651 -11.946955 -0.730709 -24.609807 -4.344953 17.924573 0.000000 0.000000 -0.000000 -0.000001 0.000001 -0.000001 6.035171 4.315560 -1.203296 12.224171 8.528406 -2.981040 12.224175 8.528395 -2.981035 -12.706021 0.665368 1.229652 -2.359374 22.874645 -2.642889 0.000000 0.000000 0.000000 0.000000 0.000000 0.000000 0.000000 0.000000 -0.000000 0.000000 0.000000 0.000000 0.000000 0.000000 0.000000 0.000000 0.000000 0.000000 0.000000 0.000000 0.000000 0.000000 0.000000 0.000000 0.000000 0.000000 0.000000 0.265568 -1.356433 -8.721385 -15.849128 -0.272493 -61.599106 11.914432 -42.970656 5.909666 17.937598 -1.587072 20.477098 9.860288 4.600712 -6.210160 0.178208 1.135721 0.954689 -0.000001 0.000002 -0.000001 -1.259477 -6.014159 -9.465732 -0.209148 0.123934 -22.380652 0.000001 0.000001 -0.000004 2.249207 8.742724 -19.308588 -0.708694 -2.109439 -27.382315 0.000000 0.000002 -0.000001 2.646791 13.741494 -35.282647 -0.757564 -2.970187 -37.190510 0.000001 0.000003 0.000001 3.684835 16.759119 -39.492649 -0.783274 -5.869783 -44.559089 -0.000000 0.000000 0.000003 0.000003 -0.000003 0.000002 0.311091 10.730827 8.924907 0.830473 -21.973972 60.244536 -4.994660 43.079998 7.063713 6.221336 11.810338 8.625600 -7.878578 -4.840424 0.584309 7.937773 -19.312208 -2.870388 -0.000000 0.000000 0.000001 -1.004370 -1.581463 8.851897 0.001593 -0.710708 21.217807 -0.000001 -0.000000 0.000000 -0.662317 -2.824124 16.467571 -0.848397 2.101714 34.349807 0.000000 -0.000000 -0.000003 2.247677 -7.051083 25.083660 -1.173865 3.991409 40.845153 0.000001 0.000000 0.000001 3.080878 -9.327124 27.258576 -1.618328 8.048606 44.187776 0.000001 0.000000 0.000004 -0.000000 -0.000000 0.000002 -0.000000 -0.000000 -0.000001 -0.000001 -0.000002 -0.000000 -0.000000 -0.000000 -0.000001 -0.000000 -0.000000 -0.000001 -0.000000 -0.000000 -0.000001 -0.000001 -0.000002 0.000000 -0.000000 -0.000000 -0.000001 -0.000000 -0.000000 -0.000001 -0.000000 -0.000000 -0.000001 -0.000001 -0.000002 0.000000 0.000000 0.000000 -0.000000 0.000000 0.000000 -0.000000 0.000000 0.000000 -0.000000 
0.223233 65.531952 -0.172816 -0.810328 -45.251800 0.082601 0.000000 0.000000 -0.000000 -31.626043 6.074418 14.130487 38.442395 -12.995093 -0.315231 -7.834917 1.041564 -7.564459 -0.000000 -0.000002 -0.000000 -0.000002 0.000004 0.000001 -11.778708 -7.593501 -14.270925 42.023811 -12.812670 -0.854424 -25.187629 -4.184233 18.409641 0.000000 0.000000 0.000000 0.000000 -0.000001 -0.000001 6.162092 4.128136 -1.248966 12.470203 8.138648 -3.034275 12.470210 8.138646 -3.034276 -14.888610 1.797578 1.647217 -2.987671 24.094363 -3.539504 0.000000 0.000000 0.000000 0.000000 0.000000 0.000000 0.000000 0.000000 0.000000 0.000000 0.000000 0.000000 -0.000000 -0.000000 0.000000 0.000000 0.000000 0.000000 -0.000000 -0.000000 0.000000 0.000000 0.000000 0.000000 0.000000 0.000000 0.000000 -0.375967 -1.611369 -9.419201 -16.940413 -1.632609 -60.270464 12.892807 -40.769051 5.492823 19.195897 -3.354574 21.651922 10.623821 4.348457 -6.998080 0.744566 2.361269 1.132682 0.000001 0.000001 -0.000001 -1.386171 -4.956149 -15.725921 -0.554564 -0.599302 -28.997968 0.000002 0.000001 0.000002 2.463031 7.707547 -24.585483 -1.048244 -2.681542 -33.490487 0.000002 0.000000 0.000001 2.540726 12.492685 -39.622556 -0.984467 -3.235777 -42.938302 0.000001 -0.000001 -0.000002 2.877041 14.964197 -44.444478 -0.876367 -5.951372 -50.313431 -0.000001 -0.000002 -0.000004 -0.000002 -0.000002 0.000001 -0.442268 11.779068 8.775499 0.563408 -20.903029 59.747934 -4.165702 43.767770 6.786854 6.490518 12.058538 6.153606 -6.731243 -4.732386 1.676351 7.975054 -19.447674 -2.885668 -0.000001 -0.000001 0.000001 -0.815430 -1.983365 13.748243 -0.192965 -0.266678 26.056470 -0.000001 0.000001 0.000001 -0.642467 -2.735985 20.695296 -1.075437 2.409184 38.618979 -0.000000 -0.000001 -0.000001 2.025491 -6.670627 28.840262 -1.401007 4.235904 44.710319 0.000001 0.000001 0.000003 2.559858 -8.543096 30.575328 -1.812405 8.238339 47.693182 -0.000001 0.000000 0.000000 0.000002 -0.000000 0.000001 -0.000003 -0.000001 0.000000 -0.000001 0.000001 -0.000001 -0.000003 -0.000001 0.000000 -0.000003 -0.000001 0.000000 -0.000003 -0.000001 0.000000 -0.000001 0.000001 -0.000001 -0.000003 -0.000001 0.000000 -0.000003 -0.000001 0.000000 -0.000003 -0.000001 0.000000 -0.000001 0.000001 -0.000001 0.000000 0.000000 -0.000000 0.000000 0.000000 -0.000000 0.000000 0.000000 -0.000000 
